# xmcd
#
# Track frame offsets:
#	150
#	729
#	1557
#	11058
#	21925
#	31422
#	31991
#	42656
#	46085
#	59863
#
# Disc length: 989 seconds
#
# Revision: 1
# Processed by: cddbd v1.5.1PL0 Copyright (c) Steve Scherf et al.
# Submitted via: CDex 1.50Beta5
#
DISCID=7503db0a
DTITLE=ロデオ - 旋風の用心棒
DYEAR=1900
DGENRE=Soundtrack
TTITLE0=BB当選音(直撃)
TTITLE1=BB当選音(旋風)
TTITLE2=直撃BIG BOUNUS
TTITLE3=旋風BIG BOUNUS
TTITLE4=REGULAR BOUNUS
TTITLE5=ENDING
TTITLE6=旋風チャンス
TTITLE7=SE TRACKS
TTITLE8=Power of Storm
TTITLE9=Justice? or Vice?
EXTD=
EXTT0=
EXTT1=
EXTT2=
EXTT3=
EXTT4=
EXTT5=
EXTT6=
EXTT7=
EXTT8=
EXTT9=
PLAYORDER=
